<svg width="36" height="37" viewBox="0 0 36 37" fill="none" xmlns="http://www.w3.org/2000/svg">
<path d="M19.5 26.1402V29.2332H27V32.2332H9V29.2332H16.5V26.1402C13.6 25.7745 10.9332 24.3631 9 22.1708C7.06678 19.9785 6.00005 17.1561 6 14.2332V5.23315H30V14.2332C30 17.1561 28.9332 19.9785 27 22.1708C25.0668 24.3631 22.4 25.7745 19.5 26.1402ZM9 8.23315V14.2332C9 16.6201 9.94821 18.9093 11.636 20.5971C13.3239 22.2849 15.6131 23.2332 18 23.2332C20.3869 23.2332 22.6761 22.2849 24.364 20.5971C26.0518 18.9093 27 16.6201 27 14.2332V8.23315H9ZM1.5 8.23315H4.5V14.2332H1.5V8.23315ZM31.5 8.23315H34.5V14.2332H31.5V8.23315Z" fill="white"/>
</svg>
