<svg width="22" height="22" viewBox="0 0 22 22" fill="none" xmlns="http://www.w3.org/2000/svg">
<path d="M3.99999 5.41399L0.756989 2.17199L2.17199 0.756989L5.41399 3.99999H20.656C20.8119 3.99998 20.9656 4.0364 21.1049 4.10636C21.2441 4.17631 21.3652 4.27785 21.4582 4.40288C21.5513 4.52792 21.6138 4.67297 21.6409 4.82648C21.6679 4.97998 21.6587 5.13768 21.614 5.28699L19.214 13.287C19.1522 13.4931 19.0257 13.6737 18.8531 13.8022C18.6805 13.9306 18.4711 14 18.256 14H5.99999V16H17V18H4.99999C4.73477 18 4.48042 17.8946 4.29288 17.7071C4.10535 17.5196 3.99999 17.2652 3.99999 17V5.41399ZM5.99999 5.99999V12H17.512L19.312 5.99999H5.99999ZM5.49999 22C5.10216 22 4.72063 21.842 4.43933 21.5606C4.15802 21.2793 3.99999 20.8978 3.99999 20.5C3.99999 20.1022 4.15802 19.7206 4.43933 19.4393C4.72063 19.158 5.10216 19 5.49999 19C5.89781 19 6.27934 19.158 6.56065 19.4393C6.84195 19.7206 6.99999 20.1022 6.99999 20.5C6.99999 20.8978 6.84195 21.2793 6.56065 21.5606C6.27934 21.842 5.89781 22 5.49999 22ZM17.5 22C17.1022 22 16.7206 21.842 16.4393 21.5606C16.158 21.2793 16 20.8978 16 20.5C16 20.1022 16.158 19.7206 16.4393 19.4393C16.7206 19.158 17.1022 19 17.5 19C17.8978 19 18.2793 19.158 18.5606 19.4393C18.842 19.7206 19 20.1022 19 20.5C19 20.8978 18.842 21.2793 18.5606 21.5606C18.2793 21.842 17.8978 22 17.5 22Z" fill="white"/>
</svg>
