<svg width="100" height="22" viewBox="0 0 100 22" fill="none" xmlns="http://www.w3.org/2000/svg">
<path d="M6.4 12.792H14.608L15.364 15.024H5.788L6.4 12.792ZM19.828 18.048C19.924 18.36 20.164 18.576 20.548 18.696L22.168 19.128V21H12.34V19.128L14.86 18.696L9.784 2.208H10.9L5.932 18.696L8.416 19.128V21H0.784V19.128L2.548 18.696C2.908 18.6 3.136 18.384 3.232 18.048L9.208 0.299998H13.852L19.828 18.048ZM28.7914 10.092C29.2234 9.132 29.7034 8.304 30.2314 7.608C30.7834 6.888 31.3714 6.336 31.9954 5.952C32.6434 5.568 33.3154 5.376 34.0114 5.376C34.2994 5.376 34.6594 5.424 35.0914 5.52C35.5234 5.592 35.8594 5.688 36.0994 5.808C36.1954 6.552 36.2074 7.452 36.1354 8.508C36.0634 9.564 35.9194 10.584 35.7034 11.568H33.6514L33.1834 10.056C33.0874 9.72 32.9554 9.504 32.7874 9.408C32.6434 9.312 32.4154 9.264 32.1034 9.264C31.7194 9.264 31.2634 9.372 30.7354 9.588C30.2074 9.804 29.7034 10.188 29.2234 10.74L28.7914 10.092ZM29.8354 10.02V18.12C29.8354 18.552 30.0514 18.804 30.4834 18.876L32.6794 19.128V21H23.0674V19.128L24.4714 18.876C24.8794 18.804 25.0834 18.552 25.0834 18.12V9.192C25.0834 8.76 24.8914 8.508 24.5074 8.436L22.9234 8.112V6.168C23.7634 5.928 24.6634 5.748 25.6234 5.628C26.6074 5.508 27.5074 5.436 28.3234 5.412L29.0794 5.988L29.8354 10.02ZM39.7686 8.256L37.7526 7.896V6.168L39.4086 5.844C39.6486 5.796 39.8166 5.724 39.9126 5.628C40.0086 5.508 40.1046 5.34 40.2006 5.124L41.6766 1.308H44.3046L44.4486 5.772H48.5526V8.184H44.5206V15.564C44.5206 16.548 44.6646 17.232 44.9526 17.616C45.2406 17.976 45.6846 18.156 46.2846 18.156C46.6206 18.156 46.9926 18.096 47.4006 17.976C47.8086 17.856 48.1806 17.652 48.5166 17.364L49.4166 18.372C48.9846 19.332 48.3006 20.052 47.3646 20.532C46.4286 20.988 45.3606 21.216 44.1606 21.216C43.2486 21.216 42.4566 21.084 41.7846 20.82C41.1366 20.532 40.6326 20.052 40.2726 19.38C39.9366 18.708 39.7686 17.784 39.7686 16.608V8.256ZM62.3308 18.516C61.7068 19.404 60.9868 20.088 60.1708 20.568C59.3548 21.048 58.2508 21.288 56.8588 21.288C55.2988 21.288 54.1228 20.868 53.3308 20.028C52.5628 19.188 52.1788 17.892 52.1788 16.14V9.156C52.1788 8.748 51.9868 8.496 51.6028 8.4L50.1988 8.04V6.096C51.1108 5.88 52.1188 5.712 53.2228 5.592C54.3508 5.472 55.3708 5.412 56.2828 5.412L56.8948 5.988V15.528C56.8948 16.776 57.0628 17.628 57.3988 18.084C57.7588 18.516 58.2988 18.732 59.0188 18.732C59.4988 18.732 59.9668 18.636 60.4228 18.444C60.9028 18.252 61.3588 17.988 61.7908 17.652L62.3308 18.516ZM67.8388 20.748C67.5268 20.844 67.0588 20.952 66.4348 21.072C65.8108 21.192 65.2228 21.252 64.6708 21.252C63.6868 21.252 62.8948 21.012 62.2948 20.532C61.7188 20.052 61.3348 19.332 61.1428 18.372V9.12C61.1428 8.688 60.9508 8.436 60.5668 8.364L59.0548 8.004V6.06C59.9908 5.844 61.0228 5.688 62.1508 5.592C63.2788 5.472 64.3108 5.412 65.2468 5.412L65.8588 5.988V18.012C65.8588 18.3 65.9188 18.504 66.0388 18.624C66.1588 18.72 66.3268 18.78 66.5428 18.804L67.8388 18.984V20.748ZM75.268 10.092C75.7 9.132 76.18 8.304 76.708 7.608C77.26 6.888 77.848 6.336 78.472 5.952C79.12 5.568 79.792 5.376 80.488 5.376C80.776 5.376 81.136 5.424 81.568 5.52C82 5.592 82.336 5.688 82.576 5.808C82.672 6.552 82.684 7.452 82.612 8.508C82.54 9.564 82.396 10.584 82.18 11.568H80.128L79.66 10.056C79.564 9.72 79.432 9.504 79.264 9.408C79.12 9.312 78.892 9.264 78.58 9.264C78.196 9.264 77.74 9.372 77.212 9.588C76.684 9.804 76.18 10.188 75.7 10.74L75.268 10.092ZM76.312 10.02V18.12C76.312 18.552 76.528 18.804 76.96 18.876L79.156 19.128V21H69.544V19.128L70.948 18.876C71.356 18.804 71.56 18.552 71.56 18.12V9.192C71.56 8.76 71.368 8.508 70.984 8.436L69.4 8.112V6.168C70.24 5.928 71.14 5.748 72.1 5.628C73.084 5.508 73.984 5.436 74.8 5.412L75.556 5.988L76.312 10.02ZM94.0715 13.584C94.0715 12.072 93.9995 10.86 93.8555 9.948C93.7115 9.036 93.4475 8.388 93.0635 8.004C92.7035 7.596 92.1995 7.392 91.5515 7.392C90.7595 7.392 90.1595 7.812 89.7515 8.652C89.3675 9.492 89.1755 11.004 89.1755 13.188C89.1755 14.7 89.2475 15.912 89.3915 16.824C89.5595 17.736 89.8235 18.396 90.1835 18.804C90.5435 19.212 91.0475 19.416 91.6955 19.416C92.4875 19.416 93.0755 18.996 93.4595 18.156C93.8675 17.292 94.0715 15.768 94.0715 13.584ZM84.0635 13.548C84.0635 11.556 84.3995 9.972 85.0715 8.796C85.7675 7.596 86.7035 6.732 87.8795 6.204C89.0555 5.676 90.3755 5.412 91.8395 5.412C93.3755 5.412 94.6835 5.7 95.7635 6.276C96.8435 6.828 97.6715 7.68 98.2475 8.832C98.8475 9.984 99.1475 11.448 99.1475 13.224C99.1475 15.24 98.8115 16.848 98.1395 18.048C97.4675 19.224 96.5435 20.076 95.3675 20.604C94.2155 21.108 92.8955 21.36 91.4075 21.36C89.8955 21.36 88.5875 21.084 87.4835 20.532C86.3795 19.956 85.5275 19.092 84.9275 17.94C84.3515 16.788 84.0635 15.324 84.0635 13.548Z" fill="#282828"/>
</svg>
