<svg width="36" height="37" viewBox="0 0 36 37" fill="none" xmlns="http://www.w3.org/2000/svg">
<path d="M18 3.73315C26.2845 3.73315 33 10.4487 33 18.7332C33 27.0177 26.2845 33.7332 18 33.7332C9.7155 33.7332 3 27.0177 3 18.7332C3 10.4487 9.7155 3.73315 18 3.73315ZM18.549 20.7822L13.3455 29.7972C15.4575 30.6808 17.7771 30.9461 20.034 30.5622C19.6354 27.7592 20.0433 24.9007 21.21 22.3212L18.549 20.7822ZM23.826 23.8287C23.0477 25.6711 22.7449 27.6796 22.9455 29.6697C24.7661 28.8441 26.3524 27.578 27.561 25.9857L23.826 23.8287ZM13.2885 17.7462C11.6379 20.0465 9.36704 21.8299 6.741 22.8882C7.53435 25.035 8.92437 26.9105 10.7475 28.2942L15.951 19.2822L13.2885 17.7462ZM29.943 17.5512L29.556 17.7312C27.8929 18.5527 26.4445 19.7509 25.326 21.2307L29.064 23.3892C29.8404 21.5467 30.1426 19.539 29.943 17.5497V17.5512ZM6 18.7332C6 19.1322 6.0195 19.5282 6.057 19.9167C7.88025 19.0961 9.46792 17.8303 10.674 16.2357L6.936 14.0787C6.31616 15.552 5.99789 17.1347 6 18.7332ZM25.2525 9.17215L20.049 18.1842L22.7115 19.7217C24.3621 17.42 26.6335 15.6355 29.2605 14.5767C28.523 12.585 27.271 10.8243 25.632 9.47365L25.2525 9.17215ZM18 6.73315C17.3055 6.73315 16.626 6.79315 15.9645 6.90565C16.3639 9.70859 15.9559 12.5673 14.7885 15.1467L17.451 16.6842L22.6545 7.66915C21.1811 7.04932 19.5985 6.73105 18 6.73315ZM13.0545 7.79815L12.768 7.93015C11.0662 8.75735 9.58322 9.97368 8.439 11.4807L12.174 13.6377C12.9521 11.7957 13.2549 9.78768 13.0545 7.79815Z" fill="white"/>
</svg>
