<svg width="36" height="37" viewBox="0 0 36 37" fill="none" xmlns="http://www.w3.org/2000/svg">
<path d="M27.231 30.0851C24.6751 32.4896 21.2835 33.8044 17.7747 33.7509C14.266 33.6974 10.916 32.2797 8.43472 29.7984C5.95339 27.3171 4.53575 23.9671 4.48223 20.4584C4.42871 16.9497 5.74351 13.558 8.14799 11.0021L2.08949 4.94515L4.21199 2.82265L33.9105 32.5226L31.788 34.6437L27.231 30.0836V30.0851ZM10.2705 13.1261C8.43957 15.1204 7.44972 17.7449 7.50756 20.4515C7.5654 23.1582 8.66647 25.7379 10.5809 27.6522C12.4954 29.5664 15.0752 30.6673 17.7819 30.7248C20.4886 30.7824 23.1129 29.7923 25.107 27.9611L10.272 13.1261H10.2705ZM30.621 25.0331L28.2225 22.6346C28.6319 20.8943 28.5898 19.0782 28.1002 17.3587C27.6106 15.6392 26.6897 14.0733 25.425 12.8096L18 5.38315L14.4855 8.89765L12.3645 6.77815L18 1.14115L27.546 10.6871C29.3868 12.5276 30.6564 14.8609 31.2019 17.4061C31.7475 19.9513 31.5457 22.5999 30.621 25.0331Z" fill="white"/>
</svg>
